<svg width="980" height="495" viewBox="0 0 980 495" fill="none" xmlns="http://www.w3.org/2000/svg">
<circle cx="469.439" cy="284.722" r="3.52358" transform="rotate(90 469.439 284.722)" fill="#70C217"/>
<circle cx="469.439" cy="336.401" r="3.52358" transform="rotate(90 469.439 336.401)" fill="#70C217"/>
<circle cx="469.439" cy="388.08" r="3.52358" transform="rotate(90 469.439 388.08)" fill="#70C217"/>
<circle cx="469.439" cy="439.759" r="3.52358" transform="rotate(90 469.439 439.759)" fill="#70C217"/>
<circle cx="469.439" cy="491.438" r="3.52358" transform="rotate(90 469.439 491.438)" fill="#70C217"/>
<circle cx="417.76" cy="284.722" r="3.52358" transform="rotate(90 417.76 284.722)" fill="#70C217"/>
<circle cx="417.76" cy="336.401" r="3.52358" transform="rotate(90 417.76 336.401)" fill="#70C217"/>
<circle cx="417.76" cy="388.08" r="3.52358" transform="rotate(90 417.76 388.08)" fill="#70C217"/>
<circle cx="417.76" cy="439.759" r="3.52358" transform="rotate(90 417.76 439.759)" fill="#70C217"/>
<circle cx="417.76" cy="491.438" r="3.52358" transform="rotate(90 417.76 491.438)" fill="#70C217"/>
<circle cx="366.08" cy="284.722" r="3.52358" transform="rotate(90 366.08 284.722)" fill="#70C217"/>
<circle cx="366.08" cy="336.401" r="3.52358" transform="rotate(90 366.08 336.401)" fill="#70C217"/>
<circle cx="366.08" cy="388.08" r="3.52358" transform="rotate(90 366.08 388.08)" fill="#70C217"/>
<circle cx="366.08" cy="439.759" r="3.52358" transform="rotate(90 366.08 439.759)" fill="#70C217"/>
<circle cx="366.08" cy="491.438" r="3.52358" transform="rotate(90 366.08 491.438)" fill="#70C217"/>
<circle cx="314.401" cy="284.722" r="3.52358" transform="rotate(90 314.401 284.722)" fill="#70C217"/>
<circle cx="314.401" cy="336.401" r="3.52358" transform="rotate(90 314.401 336.401)" fill="#70C217"/>
<circle cx="314.401" cy="388.08" r="3.52358" transform="rotate(90 314.401 388.08)" fill="#70C217"/>
<circle cx="314.401" cy="439.759" r="3.52358" transform="rotate(90 314.401 439.759)" fill="#70C217"/>
<circle cx="314.401" cy="491.438" r="3.52358" transform="rotate(90 314.401 491.438)" fill="#70C217"/>
<circle cx="262.722" cy="284.722" r="3.52358" transform="rotate(90 262.722 284.722)" fill="#70C217"/>
<circle cx="262.722" cy="336.401" r="3.52358" transform="rotate(90 262.722 336.401)" fill="#70C217"/>
<circle cx="262.722" cy="388.08" r="3.52358" transform="rotate(90 262.722 388.08)" fill="#70C217"/>
<circle cx="262.722" cy="439.759" r="3.52358" transform="rotate(90 262.722 439.759)" fill="#70C217"/>
<circle cx="262.722" cy="491.438" r="3.52358" transform="rotate(90 262.722 491.438)" fill="#70C217"/>
<circle cx="211.043" cy="284.722" r="3.52358" transform="rotate(90 211.043 284.722)" fill="#70C217"/>
<circle cx="211.043" cy="336.401" r="3.52358" transform="rotate(90 211.043 336.401)" fill="#70C217"/>
<circle cx="211.043" cy="388.08" r="3.52358" transform="rotate(90 211.043 388.08)" fill="#70C217"/>
<circle cx="211.043" cy="439.759" r="3.52358" transform="rotate(90 211.043 439.759)" fill="#70C217"/>
<circle cx="211.043" cy="491.438" r="3.52358" transform="rotate(90 211.043 491.438)" fill="#70C217"/>
<circle cx="159.364" cy="284.722" r="3.52358" transform="rotate(90 159.364 284.722)" fill="#70C217"/>
<circle cx="159.364" cy="336.401" r="3.52358" transform="rotate(90 159.364 336.401)" fill="#70C217"/>
<circle cx="159.364" cy="388.08" r="3.52358" transform="rotate(90 159.364 388.08)" fill="#70C217"/>
<circle cx="159.364" cy="439.759" r="3.52358" transform="rotate(90 159.364 439.759)" fill="#70C217"/>
<circle cx="159.364" cy="491.438" r="3.52358" transform="rotate(90 159.364 491.438)" fill="#70C217"/>
<circle cx="107.684" cy="284.722" r="3.52358" transform="rotate(90 107.684 284.722)" fill="#70C217"/>
<circle cx="107.684" cy="336.401" r="3.52358" transform="rotate(90 107.684 336.401)" fill="#70C217"/>
<circle cx="107.684" cy="388.08" r="3.52358" transform="rotate(90 107.684 388.08)" fill="#70C217"/>
<circle cx="107.684" cy="439.759" r="3.52358" transform="rotate(90 107.684 439.759)" fill="#70C217"/>
<circle cx="107.684" cy="491.438" r="3.52358" transform="rotate(90 107.684 491.438)" fill="#70C217"/>
<circle cx="56.0052" cy="284.722" r="3.52358" transform="rotate(90 56.0052 284.722)" fill="#70C217"/>
<circle cx="56.0052" cy="336.401" r="3.52358" transform="rotate(90 56.0052 336.401)" fill="#70C217"/>
<circle cx="56.0052" cy="388.08" r="3.52358" transform="rotate(90 56.0052 388.08)" fill="#70C217"/>
<circle cx="56.0052" cy="439.759" r="3.52358" transform="rotate(90 56.0052 439.759)" fill="#70C217"/>
<circle cx="56.0052" cy="491.438" r="3.52358" transform="rotate(90 56.0052 491.438)" fill="#70C217"/>
<circle cx="4.32603" cy="284.722" r="3.52358" transform="rotate(90 4.32603 284.722)" fill="#70C217"/>
<circle cx="4.32603" cy="336.401" r="3.52358" transform="rotate(90 4.32603 336.401)" fill="#70C217"/>
<circle cx="4.32603" cy="388.08" r="3.52358" transform="rotate(90 4.32603 388.08)" fill="#70C217"/>
<circle cx="4.32603" cy="439.759" r="3.52358" transform="rotate(90 4.32603 439.759)" fill="#70C217"/>
<circle cx="4.32603" cy="491.438" r="3.52358" transform="rotate(90 4.32603 491.438)" fill="#70C217"/>
<circle cx="975.637" cy="3.52407" r="3.52358" transform="rotate(90 975.637 3.52407)" fill="#EF4358"/>
<circle cx="975.637" cy="55.2028" r="3.52358" transform="rotate(90 975.637 55.2028)" fill="#EF4358"/>
<circle cx="975.637" cy="106.882" r="3.52358" transform="rotate(90 975.637 106.882)" fill="#EF4358"/>
<circle cx="975.637" cy="158.561" r="3.52358" transform="rotate(90 975.637 158.561)" fill="#EF4358"/>
<circle cx="975.637" cy="210.24" r="3.52358" transform="rotate(90 975.637 210.24)" fill="#EF4358"/>
<circle cx="923.957" cy="3.52358" r="3.52358" transform="rotate(90 923.957 3.52358)" fill="#EF4358"/>
<circle cx="923.957" cy="55.2028" r="3.52358" transform="rotate(90 923.957 55.2028)" fill="#EF4358"/>
<circle cx="923.957" cy="106.882" r="3.52358" transform="rotate(90 923.957 106.882)" fill="#EF4358"/>
<circle cx="923.957" cy="158.561" r="3.52358" transform="rotate(90 923.957 158.561)" fill="#EF4358"/>
<circle cx="923.957" cy="210.24" r="3.52358" transform="rotate(90 923.957 210.24)" fill="#EF4358"/>
<circle cx="872.278" cy="3.52358" r="3.52358" transform="rotate(90 872.278 3.52358)" fill="#EF4358"/>
<circle cx="872.278" cy="55.2028" r="3.52358" transform="rotate(90 872.278 55.2028)" fill="#EF4358"/>
<circle cx="872.278" cy="106.882" r="3.52358" transform="rotate(90 872.278 106.882)" fill="#EF4358"/>
<circle cx="872.278" cy="158.561" r="3.52358" transform="rotate(90 872.278 158.561)" fill="#EF4358"/>
<circle cx="872.278" cy="210.24" r="3.52358" transform="rotate(90 872.278 210.24)" fill="#EF4358"/>
<circle cx="820.599" cy="3.52358" r="3.52358" transform="rotate(90 820.599 3.52358)" fill="#EF4358"/>
<circle cx="820.599" cy="55.2028" r="3.52358" transform="rotate(90 820.599 55.2028)" fill="#EF4358"/>
<circle cx="820.599" cy="106.882" r="3.52358" transform="rotate(90 820.599 106.882)" fill="#EF4358"/>
<circle cx="820.599" cy="158.561" r="3.52358" transform="rotate(90 820.599 158.561)" fill="#EF4358"/>
<circle cx="820.599" cy="210.24" r="3.52358" transform="rotate(90 820.599 210.24)" fill="#EF4358"/>
<circle cx="768.92" cy="3.52358" r="3.52358" transform="rotate(90 768.92 3.52358)" fill="#EF4358"/>
<circle cx="768.92" cy="55.2028" r="3.52358" transform="rotate(90 768.92 55.2028)" fill="#EF4358"/>
<circle cx="768.92" cy="106.882" r="3.52358" transform="rotate(90 768.92 106.882)" fill="#EF4358"/>
<circle cx="768.92" cy="158.561" r="3.52358" transform="rotate(90 768.92 158.561)" fill="#EF4358"/>
<circle cx="768.92" cy="210.24" r="3.52358" transform="rotate(90 768.92 210.24)" fill="#EF4358"/>
<circle cx="717.241" cy="3.52358" r="3.52358" transform="rotate(90 717.241 3.52358)" fill="#EF4358"/>
<circle cx="717.241" cy="55.2028" r="3.52358" transform="rotate(90 717.241 55.2028)" fill="#EF4358"/>
<circle cx="717.241" cy="106.882" r="3.52358" transform="rotate(90 717.241 106.882)" fill="#EF4358"/>
<circle cx="717.241" cy="158.561" r="3.52358" transform="rotate(90 717.241 158.561)" fill="#EF4358"/>
<circle cx="717.241" cy="210.24" r="3.52358" transform="rotate(90 717.241 210.24)" fill="#EF4358"/>
<circle cx="665.561" cy="3.52358" r="3.52358" transform="rotate(90 665.561 3.52358)" fill="#EF4358"/>
<circle cx="665.561" cy="55.2028" r="3.52358" transform="rotate(90 665.561 55.2028)" fill="#EF4358"/>
<circle cx="665.561" cy="106.882" r="3.52358" transform="rotate(90 665.561 106.882)" fill="#EF4358"/>
<circle cx="665.561" cy="158.561" r="3.52358" transform="rotate(90 665.561 158.561)" fill="#EF4358"/>
<circle cx="665.561" cy="210.24" r="3.52358" transform="rotate(90 665.561 210.24)" fill="#EF4358"/>
<circle cx="613.882" cy="3.52358" r="3.52358" transform="rotate(90 613.882 3.52358)" fill="#EF4358"/>
<circle cx="613.882" cy="55.2028" r="3.52358" transform="rotate(90 613.882 55.2028)" fill="#EF4358"/>
<circle cx="613.882" cy="106.882" r="3.52358" transform="rotate(90 613.882 106.882)" fill="#EF4358"/>
<circle cx="613.882" cy="158.561" r="3.52358" transform="rotate(90 613.882 158.561)" fill="#EF4358"/>
<circle cx="613.882" cy="210.24" r="3.52358" transform="rotate(90 613.882 210.24)" fill="#EF4358"/>
<circle cx="562.203" cy="3.52358" r="3.52358" transform="rotate(90 562.203 3.52358)" fill="#EF4358"/>
<circle cx="562.203" cy="55.2028" r="3.52358" transform="rotate(90 562.203 55.2028)" fill="#EF4358"/>
<circle cx="562.203" cy="106.882" r="3.52358" transform="rotate(90 562.203 106.882)" fill="#EF4358"/>
<circle cx="562.203" cy="158.561" r="3.52358" transform="rotate(90 562.203 158.561)" fill="#EF4358"/>
<circle cx="562.203" cy="210.24" r="3.52358" transform="rotate(90 562.203 210.24)" fill="#EF4358"/>
<circle cx="510.524" cy="3.52358" r="3.52358" transform="rotate(90 510.524 3.52358)" fill="#EF4358"/>
<circle cx="510.524" cy="55.2028" r="3.52358" transform="rotate(90 510.524 55.2028)" fill="#EF4358"/>
<circle cx="510.524" cy="106.882" r="3.52358" transform="rotate(90 510.524 106.882)" fill="#EF4358"/>
<circle cx="510.524" cy="158.561" r="3.52358" transform="rotate(90 510.524 158.561)" fill="#EF4358"/>
<circle cx="510.524" cy="210.24" r="3.52358" transform="rotate(90 510.524 210.24)" fill="#EF4358"/>
</svg>
